<svg xmlns="http://www.w3.org/2000/svg" viewBox="0 0 1100 720">
  <defs>
    <radialGradient id="coverGlow" cx="50%" cy="42%" r="65%">
      <stop offset="0%" stop-color="#7f3aa8"/>
      <stop offset="55%" stop-color="#34164f"/>
      <stop offset="100%" stop-color="#13071f"/>
    </radialGradient>
    <linearGradient id="gold" x1="0" x2="1">
      <stop offset="0%" stop-color="#8b6127"/>
      <stop offset="45%" stop-color="#ffe0a0"/>
      <stop offset="100%" stop-color="#b07b2c"/>
    </linearGradient>
    <filter id="shadow" x="-30%" y="-30%" width="160%" height="160%">
      <feDropShadow dx="0" dy="26" stdDeviation="24" flood-color="#000" flood-opacity=".55"/>
    </filter>
  </defs>
  <g filter="url(#shadow)">
    <rect x="155" y="80" width="790" height="560" rx="48" fill="url(#coverGlow)" stroke="url(#gold)" stroke-width="8"/>
    <rect x="195" y="120" width="710" height="480" rx="34" fill="none" stroke="url(#gold)" stroke-width="5" opacity=".78"/>
    <path d="M245 155 h95 m-95 0 v95 M855 155 h-95 m95 0 v95 M245 565 h95 m-95 0 v-95 M855 565 h-95 m95 0 v-95" fill="none" stroke="url(#gold)" stroke-width="12" stroke-linecap="round"/>
    <path d="M185 115 c-22 25-34 62-34 112v266c0 54 14 92 41 115" fill="none" stroke="#0b0512" stroke-width="28" opacity=".35"/>
    <text x="550" y="330" text-anchor="middle" font-family="Georgia, serif" font-size="94" fill="#ffe3a1">Forever Beaded</text>
    <text x="550" y="395" text-anchor="middle" font-family="Georgia, serif" font-size="25" letter-spacing="5" fill="#fff3d4">EVERY TREASURED PIECE BEGINS WITH A STORY</text>
  </g>
</svg>